[2026-03-04T04:55:33.729Z] Pipeline started.
[2026-03-04T04:55:34.427Z] Downloading YouTube: https://youtube.com/shorts/sbqu-Bw61Rs?si=Nn4xez_KJv-rjCSm
[2026-03-04T04:55:55.715Z] ElevenLabs TTS seg 0 [21m00Tcm4TlvDq8ikWAM]: "Həyat tərzini dəyişmək?"
[2026-03-04T04:55:57.088Z] Seg 0 done (27211 bytes) ✅
[2026-03-04T04:55:57.219Z] Stretching seg 0: 1.67s→1.20s (rate=1.39)
[2026-03-04T04:55:57.549Z] ElevenLabs TTS seg 1 [2EiwWnXFnvU5JabPnv8n]: "Sən çox bahalı paltarlar aldığın kimi görünmürsən."
[2026-03-04T04:55:59.058Z] Seg 1 done (63573 bytes) ✅
[2026-03-04T04:55:59.159Z] Stretching seg 1: 3.94s→2.80s (rate=1.41)
[2026-03-04T04:55:59.511Z] ElevenLabs TTS seg 2 [21m00Tcm4TlvDq8ikWAM]: "Yox, mən çox bahalı paltarlar almıram."
[2026-03-04T04:56:00.678Z] Seg 2 done (46437 bytes) ✅
[2026-03-04T04:56:00.779Z] Stretching seg 2: 2.87s→2.20s (rate=1.30)
[2026-03-04T04:56:01.196Z] ElevenLabs TTS seg 3 [2EiwWnXFnvU5JabPnv8n]: "Sən əşyalar alırsan? Sən... alırsan ki..."
[2026-03-04T04:56:02.605Z] Seg 3 done (61902 bytes) ✅
[2026-03-04T04:56:02.703Z] Stretching seg 3: 3.84s→2.80s (rate=1.37)
[2026-03-04T04:56:03.031Z] ElevenLabs TTS seg 4 [21m00Tcm4TlvDq8ikWAM]: "Yox, mənim kiçik, bir otaqlı mənzilim var, yerə ya"
[2026-03-04T04:56:04.317Z] Seg 4 done (64827 bytes) ✅
[2026-03-04T04:56:04.426Z] Stretching seg 4: 4.02s→4.70s (rate=0.86)
[2026-03-04T04:56:04.833Z] ElevenLabs TTS seg 5 [21m00Tcm4TlvDq8ikWAM]: "Orada yaşayıram."
[2026-03-04T04:56:05.847Z] Seg 5 done (20942 bytes) ✅
[2026-03-04T04:56:06.041Z] Stretching seg 5: 1.28s→1.60s (rate=0.80)
[2026-03-04T04:56:06.456Z] Running FFmpeg: C:\Users\fullm\Downloads\dubverse-saas\backend\node_modules\ffmpeg-static\ffmpeg.exe -i C:\Users\fullm\Downloads\dubverse-saas\tmp\uploads\fa56c592-4d53-495c-a919-8834f05612b4\audio.mp3 -i C:\Users\fullm\Downloads\dubverse-saas\tmp\uploads\fa56c592-4d53-495c-a919-8834f05612b4\segments\seg_0.mp3 -i C:\Users\fullm\Downloads\dubverse-saas\tmp\uploads\fa56c592-4d53-495c-a919-8834f05612b4\segments\seg_1.mp3 -i C:\Users\fullm\Downloads\dubverse-saas\tmp\uploads\fa56c592-4d53-495c-a919-8834f05612b4\segments\seg_2.mp3 -i C:\Users\fullm\Downloads\dubverse-saas\tmp\uploads\fa56c592-4d53-495c-a919-8834f05612b4\segments\seg_3.mp3 -i C:\Users\fullm\Downloads\dubverse-saas\tmp\uploads\fa56c592-4d53-495c-a919-8834f05612b4\segments\seg_4.mp3 -i C:\Users\fullm\Downloads\dubverse-saas\tmp\uploads\fa56c592-4d53-495c-a919-8834f05612b4\segments\seg_5.mp3 -filter_complex [1:a]aformat=sample_rates=44100:channel_layouts=stereo,adelay=0|0[s0];[2:a]aformat=sample_rates=44100:channel_layouts=stereo,adelay=1200|1200[s1];[3:a]aformat=sample_rates=44100:channel_layouts=stereo,adelay=4000|4000[s2];[4:a]aformat=sample_rates=44100:channel_layouts=stereo,adelay=6200|6200[s3];[5:a]aformat=sample_rates=44100:channel_layouts=stereo,adelay=9000|9000[s4];[6:a]aformat=sample_rates=44100:channel_layouts=stereo,adelay=13700|13700[s5];[0:a]aformat=sample_rates=44100:channel_layouts=stereo,volume=0[bg];[bg][s0][s1][s2][s3][s4][s5]amix=inputs=7:duration=first:dropout_transition=2,volume=7[mixed];[mixed]loudnorm=I=-23:TP=-1.5:LRA=11[out] -map [out] -acodec libmp3lame -ar 44100 -b:a 192k -y C:\Users\fullm\Downloads\dubverse-saas\tmp\uploads\fa56c592-4d53-495c-a919-8834f05612b4\dubbed_audio.mp3
[2026-03-04T04:56:06.742Z] FFmpeg Err: Input #0, mp3, from 'C:\Users\fullm\Downloads\dubverse-saas\tmp\uploads\fa56c592-4d53-495c-a919-8834f05612b4\audio.mp3':
  Metadata:
    major_brand     : mp42
    minor_version   : 0
    compatible_brands: isommp42
    encoder         : Lavf60.16.100
  Duration: 00:00:15.33, start: 0.025057, bitrate: 128 kb/s
[2026-03-04T04:56:06.745Z] FFmpeg Err: 
  Stream #0:0: Audio: mp3, 44100 Hz, stereo, fltp, 128 kb/s
    Metadata:
      encoder         : Lavc60.31
Input #1, mp3, from 'C:\Users\fullm\Downloads\dubverse-saas\tmp\uploads\fa56c592-4d53-495c-a919-8834f05612b4\segments\seg_0.mp3':
  Metadata:
    encoder         : Lavf60.16.100
  Duration: 00:00:01.20, start: 0.025057, bitrate: 65 kb/s
  Stream #1:0: Audio: mp3, 44100 Hz, mono, fltp, 64 kb/s
Input #2, mp3, from 'C:\Users\fullm\Downloads\dubverse-saas\tmp\uploads\fa56c592-4d53-495c-a919-8834f05612b4\segments\seg_1.mp3':
  Metadata:
    encoder         : Lavf60.16.100
  Duration: 00:00:02.82, start: 0.025057, bitrate: 64 kb/s
  Stream #2:0: Audio: mp3, 44100 Hz, mono, fltp, 64 kb/s

[2026-03-04T04:56:06.750Z] FFmpeg Err: Input #3, mp3, from 'C:\Users\fullm\Downloads\dubverse-saas\tmp\uploads\fa56c592-4d53-495c-a919-8834f05612b4\segments\seg_2.mp3':
  Metadata:
    encoder         : Lavf60.16.100
  Duration: 00:00:02.22, start: 0.025057, bitrate: 64 kb/s
  Stream #3:0: Audio: mp3, 44100 Hz, mono, fltp, 64 kb/s
Input #4, mp3, from 'C:\Users\fullm\Downloads\dubverse-saas\tmp\uploads\fa56c592-4d53-495c-a919-8834f05612b4\segments\seg_3.mp3':
  Metadata:
    encoder         : Lavf60.16.100
  Duration: 00:00:02.82, start: 0.025057, bitrate: 64 kb/s
  Stream #4:0: Audio: mp3, 44100 Hz, mono, fltp, 64 kb/s
Input #5, mp3, from 'C:\Users\fullm\Downloads\dubverse-saas\tmp\uploads\fa56c592-4d53-495c-a919-8834f05612b4\segments\seg_4.mp3':
  Metadata:
    encoder         : Lavf60.16.100
  Duration: 00:00:04.70, start: 0.025057, bitrate: 64 kb/s
  Stream #5:0: Audio: mp3, 44100 Hz, mono, fltp, 64 kb/s
Input #6, mp3, from 'C:\Users\fullm\Downloads\dubverse-saas\tmp\uploads\fa56c592-4d53-495c-a919-8834f05612b4\segments\seg_5.mp3':
  Metadata:
    encoder         : Lavf60.16.100
  Duration: 00:00:01.59, start: 0.025057, bitrate: 65 kb/s
  Stream #6:0: Audio: mp3, 44100 Hz, mono, fltp, 64 kb/s

[2026-03-04T04:56:06.755Z] FFmpeg Err: Stream mapping:
  Stream #0:0 (mp3float) -> aformat:default
  Stream #1:0 (mp3float) -> aformat:default
  Stream #2:0 (mp3float) -> aformat:default
  Stream #3:0 (mp3float) -> aformat:default
  Stream #4:0 (mp3float) -> aformat:default
  Stream #5:0 (mp3float) -> aformat:default
  Stream #6:0 (mp3float) -> aformat:default
  loudnorm:default -> Stream #0:0 (libmp3lame)

[2026-03-04T04:56:06.891Z] FFmpeg Err: Output #0, mp3, to 'C:\Users\fullm\Downloads\dubverse-saas\tmp\uploads\fa56c592-4d53-495c-a919-8834f05612b4\dubbed_audio.mp3':
  Metadata:
    major_brand     : mp42
    minor_version   : 0
    compatible_brands: isommp42
    TSSE            : Lavf60.16.100
  Stream #0:0: Audio: mp3, 44100 Hz, stereo, fltp, 192 kb/s
    Metadata:
      encoder         : Lavc60.31.102 libmp3lame

[2026-03-04T04:56:06.894Z] FFmpeg Err: size=       0kB time=-00:00:00.02 bitrate=  -0.0kbits/s speed=N/A    
[2026-03-04T04:56:07.347Z] FFmpeg Err: size=     132kB time=00:00:05.59 bitrate= 194.0kbits/s speed= 9.4x    
[2026-03-04T04:56:07.851Z] FFmpeg Err: size=     256kB time=00:00:12.09 bitrate= 173.4kbits/s speed=  11x    
[2026-03-04T04:56:08.030Z] FFmpeg Err: [out#0/mp3 @ 0000023b37981e00] video:0kB audio:359kB subtitle:0kB other streams:0kB global headers:0kB muxing overhead: 0.207601%
size=     360kB time=00:00:15.38 bitrate= 191.8kbits/s speed=  12x    

[2026-03-04T04:56:11.026Z] Running FFmpeg: C:\Users\fullm\Downloads\dubverse-saas\backend\node_modules\ffmpeg-static\ffmpeg.exe -i C:\Users\fullm\Downloads\dubverse-saas\tmp\uploads\fa56c592-4d53-495c-a919-8834f05612b4\video.mp4 -i C:\Users\fullm\Downloads\dubverse-saas\tmp\uploads\fa56c592-4d53-495c-a919-8834f05612b4\dubbed_audio.mp3 -map 0:v:0 -map 1:a:0 -c:v copy -c:a aac -b:a 192k -shortest -y C:\Users\fullm\Downloads\dubverse-saas\tmp\uploads\fa56c592-4d53-495c-a919-8834f05612b4\final_dubbed.mp4
[2026-03-04T04:56:11.181Z] FFmpeg Err: Input #0, mov,mp4,m4a,3gp,3g2,mj2, from 'C:\Users\fullm\Downloads\dubverse-saas\tmp\uploads\fa56c592-4d53-495c-a919-8834f05612b4\video.mp4':
  Metadata:
    major_brand     : mp42
    minor_version   : 0
    compatible_brands: isommp42
    creation_time   : 2022-10-02T15:04:51.000000Z
  Duration: 00:00:15.30, start: 0.000000, bitrate: 410 kb/s
  Stream #0:0[0x1](und): Video: h264 (Main) (avc1 / 0x31637661), yuv420p(tv, bt709, progressive), 360x640 [SAR 1:1 DAR 9:16], 278 kb/s, 30 fps, 30 tbr, 15360 tbn (default)

[2026-03-04T04:56:11.184Z] FFmpeg Err:     Metadata:
      creation_time   : 2022-10-02T15:04:51.000000Z
      handler_name    : ISO Media file produced by Google Inc. Created on: 10/02/2022.
      vendor_id       : [0][0][0][0]
  Stream #0:1[0x2](eng): Audio: aac (LC) (mp4a / 0x6134706D), 44100 Hz, stereo, fltp, 127 kb/s (default)
    Metadata:
      creation_time   : 2022-10-02T15:04:51.000000Z
      handler_name    : ISO Media file produced by Google Inc. Created on: 10/02/2022.
      vendor_id       : [0][0][0][0]
Input #1, mp3, from 'C:\Users\fullm\Downloads\dubverse-saas\tmp\uploads\fa56c592-4d53-495c-a919-8834f05612b4\dubbed_audio.mp3':
  Metadata:
    major_brand     : mp42
    minor_version   : 0
    compatible_brands: isommp42
    encoder         : Lavf60.16.100
  Duration: 00:00:15.33, start: 0.025057, bitrate: 192 kb/s
  Stream #1:0: Audio: mp3, 44100 Hz, stereo, fltp, 192 kb/s
    Metadata:
      encoder         : Lavc60.31

[2026-03-04T04:56:11.187Z] FFmpeg Err: Stream mapping:
  Stream #0:0 -> #0:0 (copy)
  Stream #1:0 -> #0:1 (mp3 (mp3float) -> aac (native))

[2026-03-04T04:56:11.193Z] FFmpeg Err: Output #0, mp4, to 'C:\Users\fullm\Downloads\dubverse-saas\tmp\uploads\fa56c592-4d53-495c-a919-8834f05612b4\final_dubbed.mp4':
  Metadata:
    major_brand     : mp42
    minor_version   : 0
    compatible_brands: isommp42
    encoder         : Lavf60.16.100
  Stream #0:0(und): Video: h264 (Main) (avc1 / 0x31637661), yuv420p(tv, bt709, progressive), 360x640 [SAR 1:1 DAR 9:16], q=2-31, 278 kb/s, 30 fps, 30 tbr, 15360 tbn (default)
    Metadata:
      creation_time   : 2022-10-02T15:04:51.000000Z

[2026-03-04T04:56:11.195Z] FFmpeg Err:       handler_name    : ISO Media file produced by Google Inc. Created on: 10/02/2022.
      vendor_id       : [0][0][0][0]
  Stream #0:1: Audio: aac (LC) (mp4a / 0x6134706D), 44100 Hz, stereo, fltp, 192 kb/s
    Metadata:
      encoder         : Lavc60.31.102 aac
size=       0kB time=N/A bitrate=N/A speed=N/A    
[2026-03-04T04:56:11.686Z] FFmpeg Err: size=     512kB time=00:00:08.00 bitrate= 524.3kbits/s speed=  16x    
[2026-03-04T04:56:12.189Z] FFmpeg Err: size=     512kB time=00:00:12.46 bitrate= 336.5kbits/s speed=12.5x    
[2026-03-04T04:56:12.477Z] FFmpeg Err: [out#0/mp4 @ 00000233adddbe00] video:520kB audio:362kB subtitle:0kB other streams:0kB global headers:0kB muxing overhead: 1.763591%
size=     898kB time=00:00:15.27 bitrate= 481.7kbits/s speed=11.8x    

[2026-03-04T04:56:12.479Z] FFmpeg Err: [aac @ 00000233adc4e940] Qavg: 2268.440

[2026-03-04T04:56:14.375Z] ✅ Pipeline finished successfully!
